<svg width="370.005" height="282.005" xmlns="http://www.w3.org/2000/svg">

 <g>
  <title>Layer 1</title>
  <g stroke="null" stroke-width="2" fill-opacity="0.53" id="svg_1">
   <g stroke="null" id="svg_2">
    <path stroke="null" id="svg_3" fill="#eeebf4" d="m322.80803,26.33966c1.41863,-6.2928 -5.05559,-11.59881 -11.37124,-9.30245l-273.95109,99.65361c-3.29708,1.19963 -5.47789,4.21091 -5.48471,7.57367c-0.00682,3.36331 2.16149,6.38271 5.45401,7.59425l76.95809,28.32275l0,89.20785c0,3.76301 2.71166,7.03316 6.5538,7.90351c3.81656,0.86493 7.79624,-0.86547 9.58545,-4.24774l31.82891,-60.18645l77.6748,54.93026c4.7248,3.34165 11.51618,1.21642 13.23548,-4.1535c72.52258,-226.58035 69.38749,-216.72656 69.51651,-217.29578zm-67.62443,28.55184l-133.4534,90.56509l-57.4206,-21.13198l190.874,-69.43311zm-123.71961,103.90622l116.32577,-78.94136c-100.09673,100.62306 -94.86892,95.3268 -95.30543,95.88681c-0.6485,0.83135 1.1282,-2.40902 -21.02035,39.47258l0,-56.41802zm109.04504,69.07836l-68.37183,-48.3515l123.62526,-124.27563l-55.25343,172.62713z"/>
   </g>
  </g>
 </g>
</svg>