<svg width="1440" height="623" xmlns="http://www.w3.org/2000/svg" style="vector-effect: non-scaling-stroke;" stroke="null">
 <!-- Generator: Sketch 53.2 (72643) - https://sketchapp.com -->
 <title style="vector-effect: non-scaling-stroke;" stroke="null">Background Shades</title>
 <desc style="vector-effect: non-scaling-stroke;" stroke="null">Created with Sketch.</desc>
 <defs style="vector-effect: non-scaling-stroke;" stroke="null">
  <radialGradient style="vector-effect: non-scaling-stroke;" stroke="null" id="radialGradient-1" gradientTransform="translate(0.500000,0.000000),scale(0.541291,1.000000),rotate(90.000000),translate(-0.500000,-0.000000)" r="100%" fy="0%" fx="50%" cy="0%" cx="50%">
   <stop style="vector-effect: non-scaling-stroke;" stroke="null" offset="0%" stop-color="#FFFFFF"/>
   <stop style="vector-effect: non-scaling-stroke;" stroke="null" offset="100%" stop-opacity="0" stop-color="#FFFFFF"/>
  </radialGradient>
  <radialGradient style="vector-effect: non-scaling-stroke;" stroke="null" id="radialGradient-2" gradientTransform="translate(0.500000,0.000000),scale(0.540849,1.000000),rotate(90.000000),translate(-0.500000,-0.000000)" r="100%" fy="0%" fx="50%" cy="0%" cx="50%">
   <stop style="vector-effect: non-scaling-stroke;" stroke="null" offset="0%" stop-color="#FFFFFF"/>
   <stop style="vector-effect: non-scaling-stroke;" stroke="null" offset="100%" stop-opacity="0" stop-color="#FFFFFF"/>
  </radialGradient>
  <radialGradient style="vector-effect: non-scaling-stroke;" stroke="null" id="radialGradient-3" gradientTransform="translate(0.500000,0.305417),scale(0.374565,1.000000),rotate(90.000000),scale(1.000000,1.973933),translate(-0.500000,-0.305417)" r="69.458254%" fy="30.541746%" fx="50%" cy="30.541746%" cx="50%">
   <stop style="vector-effect: non-scaling-stroke;" stroke="null" offset="0%" stop-color="#FFFFFF"/>
   <stop style="vector-effect: non-scaling-stroke;" stroke="null" offset="100%" stop-opacity="0" stop-color="#FFFFFF"/>
  </radialGradient>
  <radialGradient style="vector-effect: non-scaling-stroke;" stroke="null" id="radialGradient-4" gradientTransform="translate(0.510111,0.536771),scale(0.331005,1.000000),rotate(90.000000),scale(1.000000,1.973933),translate(-0.510111,-0.536771)" r="69.458254%" fy="53.6770501%" fx="51.0111235%" cy="53.6770501%" cx="51.0111235%">
   <stop style="vector-effect: non-scaling-stroke;" stroke="null" offset="0%" stop-color="#FFFFFF"/>
   <stop style="vector-effect: non-scaling-stroke;" stroke="null" offset="100%" stop-opacity="0" stop-color="#FFFFFF"/>
  </radialGradient>
 </defs>
 <g stroke="null">
  <title stroke="null">Layer 1</title>
  <g stroke="null" fill-rule="evenodd" fill="none" id="Page-1">
   <g stroke="null" id="Nebular-Landing-2.2">
    <g stroke="null" id="Background-Shades">
     <path stroke="null" opacity="0.1" fill="url(#radialGradient-1)" id="Path-5" d="m1428.73855,289.10017c0,-208.8526 -1063.50966,-45.55802 -1446.38333,-272.33893c-46.8446,0.19681 -280.99106,0.19681 -702.4394,0l0,727.99997l2147.25488,0c1.04523,-266.00648 1.56785,-417.8935 1.56785,-455.66104z"/>
     <path stroke="null" opacity="0.1" fill="url(#radialGradient-2)" id="Path-5" d="m1428.70609,327.78188c-22.31,-332.4873 -1476.25796,171.66656 -1984.18257,-311.02064c-46.8439,0.19681 -101.71313,0.19681 -164.60769,0l0,727.99997l2147.22244,0c3.86758,-235.92423 4.39019,-374.91733 1.56782,-416.97933z"/>
     <path stroke="null" opacity="0.1" fill="url(#radialGradient-3)" id="Path-5" d="m1428.73855,425.59209c-82.93406,-510.56418 -1141.29024,223.37223 -2148.82255,-11.29013c-1.9885,191.06487 -1.9885,301.21796 0,330.45925l2147.2547,0c1.04523,-175.01513 1.56785,-281.40483 1.56785,-319.16912z"/>
     <path stroke="null" opacity="0.08" fill="url(#radialGradient-4)" id="Path-5" d="m1428.73855,499.52749c-165.31894,-581.75766 -657.46646,306.05583 -2148.82258,155.89263c-0.0001,22.22731 -0.00015,52.00079 -0.00013,89.32042l2147.22243,0c1.06685,-125.75009 1.60028,-207.48778 1.60028,-245.21304z"/>
    </g>
   </g>
  </g>
  <ellipse stroke="#000" id="svg_3" cy="308.12666" cx="493.12961" opacity="undefined" fill="#fff"/>
  <ellipse stroke="#000" id="svg_4" cy="374.37531" cx="491.87963" opacity="undefined" fill="#fff"/>
  <ellipse stroke="#000" id="svg_5" cy="369.37541" cx="635.62671" opacity="undefined" fill="#fff"/>
  <g fill-opacity="0.22" stroke="null" id="svg_50">
   <g stroke="null" transform="matrix(0.6665376136910234,0,0,0.5300231529059136,-5083.488304481492,-1636.676018483413) " id="svg_47">
    <g stroke="null" id="svg_48">
     <path stroke="null" id="svg_49" fill="#edf1f7" d="m9695.56691,3735.45332c2.496,-11.619 -8.895,-21.416 -20.007,-17.176l-482,184c-5.801,2.215 -9.638,7.775 -9.65,13.984c-0.012,6.21 3.803,11.785 9.596,14.022l135.403,52.295l0,164.713c0,6.948 4.771,12.986 11.531,14.593c6.715,1.597 13.717,-1.598 16.865,-7.843l56.001,-111.128l136.664,101.423c8.313,6.17 20.262,2.246 23.287,-7.669c127.599,-418.357 122.083,-400.163 122.31,-401.214zm-118.981,52.718l-234.803,167.219l-101.028,-39.018l335.831,-128.201zm-217.677,191.852l204.668,-145.757c-176.114,185.79 -166.916,176.011 -167.684,177.045c-1.141,1.535 1.985,-4.448 -36.984,72.882l0,-104.17zm191.858,127.546l-120.296,-89.276l217.511,-229.462l-97.215,318.738z"/>
    </g>
   </g>
  </g>
  <g stroke="null" fill-opacity="0.08" id="svg_82">
   <g stroke="null" transform="matrix(0.794893027088482,0,0,0.7335096577352711,-7013.111571073842,-2243.3794710140896) " id="svg_54">
    <g stroke="null" id="svg_55">
     <g stroke="null" id="svg_56">
      <path stroke="null" id="svg_57" fill="#edf1f7" d="m10319.24129,3297.77027l-192,0c-8.832,0 -16,7.168 -16,16c0,8.832 7.168,16 16,16l192,0c8.832,0 16,-7.168 16,-16c0,-8.832 -7.168,-16 -16,-16z"/>
     </g>
    </g>
    <g stroke="null" id="svg_58">
     <g stroke="null" id="svg_59">
      <path stroke="null" id="svg_60" fill="#edf1f7" d="m10255.24129,3361.77027l-128,0c-8.832,0 -16,7.168 -16,16c0,8.832 7.168,16 16,16l128,0c8.832,0 16,-7.168 16,-16c0,-8.832 -7.168,-16 -16,-16z"/>
     </g>
    </g>
    <g stroke="null" id="svg_61">
     <g stroke="null" id="svg_62">
      <path stroke="null" id="svg_63" fill="#edf1f7" d="m10367.24129,3201.77027l-288,0c-35.296,0 -64,28.704 -64,64l0,320c0,6.208 3.584,11.872 9.216,14.496c2.144,0.992 4.48,1.504 6.784,1.504c3.68,0 7.328,-1.28 10.24,-3.712l91.552,-76.288l234.208,0c35.296,0 64,-28.704 64,-64l0,-192c0,-35.296 -28.704,-64 -64,-64zm32,256c0,17.632 -14.336,32 -32,32l-240,0c-3.744,0 -7.36,1.312 -10.24,3.712l-69.76,58.144l0,-285.856c0,-17.632 14.336,-32 32,-32l288,0c17.664,0 32,14.368 32,32l0,192z"/>
     </g>
    </g>
    <g stroke="null" id="svg_64">
     <g stroke="null" id="svg_65">
      <path stroke="null" id="svg_66" fill="#edf1f7" d="m10463.24129,3329.77027c-8.832,0 -16,7.168 -16,16c0,8.832 7.168,16 16,16c17.664,0 32,14.368 32,32l0,270.688l-54.016,-43.2c-2.816,-2.24 -6.368,-3.488 -9.984,-3.488l-224,0c-17.664,0 -32,-14.368 -32,-32l0,-16c0,-8.832 -7.168,-16 -16,-16c-8.832,0 -16,7.168 -16,16l0,16c0,35.296 28.704,64 64,64l218.368,0l75.616,60.512c2.912,2.304 6.464,3.488 10.016,3.488c2.336,0 4.704,-0.512 6.944,-1.568c5.536,-2.688 9.056,-8.288 9.056,-14.432l0,-304c0,-35.296 -28.704,-64 -64,-64z"/>
     </g>
    </g>
    <g stroke="null" id="svg_67"/>
    <g stroke="null" id="svg_68"/>
    <g stroke="null" id="svg_69"/>
    <g stroke="null" id="svg_70"/>
    <g stroke="null" id="svg_71"/>
    <g stroke="null" id="svg_72"/>
    <g stroke="null" id="svg_73"/>
    <g stroke="null" id="svg_74"/>
    <g stroke="null" id="svg_75"/>
    <g stroke="null" id="svg_76"/>
    <g stroke="null" id="svg_77"/>
    <g stroke="null" id="svg_78"/>
    <g stroke="null" id="svg_79"/>
    <g stroke="null" id="svg_80"/>
    <g stroke="null" id="svg_81"/>
   </g>
  </g>
 </g>
</svg>