<svg width="500" height="500" xmlns="http://www.w3.org/2000/svg">
 <!-- Created with Method Draw - http://github.com/duopixel/Method-Draw/ -->

 <g id="Layer_1">
  <title>Layer 1</title>
  <g stroke="null" id="svg_32">
   <g stroke="null" transform="matrix(0.8208075487094434,0,0,0.8208075487094434,-1503.5278418353264,-1503.5278418353264) " id="svg_4">
    <g stroke="null" id="svg_5">
     <g stroke="null" id="svg_6">
      <path id="svg_7" fill="#3366ff" d="m2189.21798,1986.09123l-192,0c-8.832,0 -16,7.168 -16,16c0,8.832 7.168,16 16,16l192,0c8.832,0 16,-7.168 16,-16c0,-8.832 -7.168,-16 -16,-16z"/>
     </g>
    </g>
    <g stroke="null" id="svg_8">
     <g stroke="null" id="svg_9">
      <path id="svg_10" fill="#3366ff" d="m2125.21798,2050.09123l-128,0c-8.832,0 -16,7.168 -16,16c0,8.832 7.168,16 16,16l128,0c8.832,0 16,-7.168 16,-16c0,-8.832 -7.168,-16 -16,-16z"/>
     </g>
    </g>
    <g stroke="null" id="svg_11">
     <g stroke="null" id="svg_12">
      <path id="svg_13" fill="#3366ff" d="m2237.21798,1890.09123l-288,0c-35.296,0 -64,28.704 -64,64l0,320c0,6.208 3.584,11.872 9.216,14.496c2.144,0.992 4.48,1.504 6.784,1.504c3.68,0 7.328,-1.28 10.24,-3.712l91.552,-76.288l234.208,0c35.296,0 64,-28.704 64,-64l0,-192c0,-35.296 -28.704,-64 -64,-64zm32,256c0,17.632 -14.336,32 -32,32l-240,0c-3.744,0 -7.36,1.312 -10.24,3.712l-69.76,58.144l0,-285.856c0,-17.632 14.336,-32 32,-32l288,0c17.664,0 32,14.368 32,32l0,192z"/>
     </g>
    </g>
    <g stroke="null" id="svg_14">
     <g stroke="null" id="svg_15">
      <path id="svg_16" fill="#3366ff" d="m2333.21798,2018.09123c-8.832,0 -16,7.168 -16,16c0,8.832 7.168,16 16,16c17.664,0 32,14.368 32,32l0,270.688l-54.016,-43.2c-2.816,-2.24 -6.368,-3.488 -9.984,-3.488l-224,0c-17.664,0 -32,-14.368 -32,-32l0,-16c0,-8.832 -7.168,-16 -16,-16c-8.832,0 -16,7.168 -16,16l0,16c0,35.296 28.704,64 64,64l218.368,0l75.616,60.512c2.912,2.304 6.464,3.488 10.016,3.488c2.336,0 4.704,-0.512 6.944,-1.568c5.536,-2.688 9.056,-8.288 9.056,-14.432l0,-304c0,-35.296 -28.704,-64 -64,-64z"/>
     </g>
    </g>
    <g stroke="null" id="svg_17"/>
    <g stroke="null" id="svg_18"/>
    <g stroke="null" id="svg_19"/>
    <g stroke="null" id="svg_20"/>
    <g stroke="null" id="svg_21"/>
    <g stroke="null" id="svg_22"/>
    <g stroke="null" id="svg_23"/>
    <g stroke="null" id="svg_24"/>
    <g stroke="null" id="svg_25"/>
    <g stroke="null" id="svg_26"/>
    <g stroke="null" id="svg_27"/>
    <g stroke="null" id="svg_28"/>
    <g stroke="null" id="svg_29"/>
    <g stroke="null" id="svg_30"/>
    <g stroke="null" id="svg_31"/>
   </g>
  </g>
 </g>
</svg>