<svg width="512" height="512" xmlns="http://www.w3.org/2000/svg">
 <g>
  <title>Layer 1</title>
  <path d="m8,256c0,-137 111,-248 248,-248s248,111 248,248s-111,248 -248,248s-248,-111 -248,-248zm143.6,28.9l72.4,-75.5l0,182.6c0,13.3 10.7,24 24,24l16,0c13.3,0 24,-10.7 24,-24l0,-182.6l72.4,75.5c9.3,9.7 24.8,9.9 34.3,0.4l10.9,-11c9.4,-9.4 9.4,-24.6 0,-33.9l-132.6,-132.7c-9.4,-9.4 -24.6,-9.4 -33.9,0l-132.8,132.7c-9.4,9.4 -9.4,24.6 0,33.9l10.9,11c9.6,9.5 25.1,9.3 34.4,-0.4z" id="svg_1" stroke="#222b45" fill="#222b45"/>
 </g>

</svg>